<?xml version="1.0" encoding="UTF-8"?>
<svg id="Camada_1" data-name="Camada 1" xmlns="http://www.w3.org/2000/svg" viewBox="0 0 1051.76 350.98">
  <defs>
    <style>
      .cls-1 {
        fill: #00b140;
      }

      .cls-1, .cls-2 {
        stroke-width: 0px;
      }

      .cls-2 {
        fill: #101820;
      }
    </style>
  </defs>
  <g>
    <path class="cls-2" d="M104,160.99c6.71,1.61,11.7,7.65,11.7,14.85s-4.99,13.24-11.7,14.85v54.61h47.21c10.34,0,18.72-8.39,18.72-18.72v-101.47c0-10.34-8.39-18.72-18.72-18.72h-47.21v54.6Z"/>
    <path class="cls-2" d="M176.99,125.11v101.47c0,10.34,8.38,18.72,18.72,18.72h47.21v-54.61c-6.71-1.61-11.69-7.65-11.69-14.85s4.98-13.24,11.69-14.85v-54.6h-47.21c-10.34,0-18.72,8.38-18.72,18.72Z"/>
  </g>
  <g>
    <path class="cls-1" d="M714.77,132.4c-3.99,0-7.42-1.44-10.29-4.31-2.87-2.87-4.31-6.3-4.31-10.29s1.44-7.56,4.31-10.38c2.87-2.81,6.3-4.22,10.29-4.22s7.56,1.41,10.38,4.22c2.81,2.81,4.22,6.28,4.22,10.38s-1.41,7.42-4.22,10.29c-2.81,2.88-6.28,4.31-10.38,4.31Z"/>
    <g>
      <path class="cls-2" d="M286.12,245.4V106.48h47.43c16.54,0,30.07,2.91,40.58,8.73,10.52,5.82,18.26,13.96,23.22,24.41,4.96,10.45,7.44,22.56,7.44,36.32,0,14.82-2.75,27.42-8.24,37.81-5.49,10.39-13.53,18.26-24.11,23.62-10.59,5.36-23.55,8.04-38.9,8.04h-47.43ZM311.52,223.57h20.84c11.77,0,21.04-1.92,27.78-5.76,6.75-3.84,11.54-9.33,14.39-16.47,2.84-7.14,4.27-15.61,4.27-25.4,0-16.54-3.8-28.64-11.41-36.32-7.61-7.67-19.28-11.51-35.03-11.51h-20.84v95.46Z"/>
      <path class="cls-2" d="M464.53,247.78c-9.92,0-18.75-2.15-26.49-6.45-7.74-4.3-13.79-10.35-18.16-18.16-4.37-7.81-6.55-16.8-6.55-26.99,0-10.72,2.35-19.94,7.05-27.68,4.69-7.74,10.98-13.66,18.85-17.76,7.87-4.1,16.57-6.15,26.1-6.15s18.78,2.15,26.59,6.45c7.81,4.3,13.99,10.29,18.56,17.96,4.57,7.67,6.85,16.74,6.85,27.19s-2.25,18.79-6.75,26.59c-4.5,7.81-10.69,13.93-18.56,18.36-7.87,4.43-17.04,6.65-27.49,6.65ZM464.92,225.75c5.29,0,9.89-1.36,13.79-4.07,3.9-2.71,6.98-6.35,9.23-10.92,2.25-4.56,3.37-9.56,3.37-14.98,0-6.22-1.22-11.51-3.67-15.88-2.45-4.37-5.66-7.67-9.63-9.92-3.97-2.25-8.33-3.37-13.1-3.37-5.16,0-9.69,1.26-13.59,3.77-3.91,2.52-6.95,5.99-9.13,10.42-2.18,4.43-3.27,9.56-3.27,15.38s1.16,10.98,3.47,15.48c2.31,4.5,5.46,7.97,9.43,10.42,3.97,2.45,8.34,3.67,13.1,3.67Z"/>
      <path class="cls-2" d="M526.64,245.4v-98.43h25.2v11.31c3.31-4.63,7.54-8.07,12.7-10.32,5.16-2.25,10.58-3.37,16.27-3.37,7.41,0,14.32,1.56,20.74,4.66,6.42,3.11,11.41,7.97,14.98,14.59,3.31-6.08,7.9-10.82,13.79-14.19,5.88-3.37,12.34-5.06,19.35-5.06,7.54,0,14.39,1.56,20.54,4.66,6.15,3.11,11.01,7.84,14.59,14.19,3.57,6.35,5.36,14.29,5.36,23.82v58.15h-25.2v-54.57c0-7.41-1.79-13.3-5.36-17.66-3.57-4.37-9.06-6.55-16.47-6.55s-12.77,2.18-16.47,6.55c-3.7,4.37-5.56,10.25-5.56,17.66v54.57h-25.2v-54.57c0-7.54-1.89-13.46-5.66-17.76-3.77-4.3-9.16-6.45-16.18-6.45-5.95,0-11.15,1.89-15.58,5.66-4.43,3.77-6.65,9.96-6.65,18.56v54.57h-25.2Z"/>
      <path class="cls-2" d="M740.77,245.4v-98.43h25.2v11.51c3.44-4.63,8.04-8.1,13.79-10.42,5.76-2.31,11.54-3.47,17.36-3.47,11.38,0,20.7,3.67,27.98,11.01,7.27,7.34,10.91,17.96,10.91,31.85v57.95h-25.2v-54.57c0-7.41-1.89-13.4-5.66-17.96-3.77-4.56-9.3-6.85-16.57-6.85s-12.87,2.28-16.77,6.85c-3.91,4.56-5.85,10.55-5.85,17.96v54.57h-25.2Z"/>
      <path class="cls-2" d="M894.97,247.78c-9.92,0-18.75-2.15-26.49-6.45-7.74-4.3-13.79-10.35-18.16-18.16-4.37-7.81-6.55-16.8-6.55-26.99,0-10.72,2.35-19.94,7.05-27.68,4.69-7.74,10.98-13.66,18.85-17.76,7.87-4.1,16.57-6.15,26.1-6.15s18.78,2.15,26.59,6.45c7.8,4.3,13.99,10.29,18.56,17.96,4.56,7.67,6.85,16.74,6.85,27.19s-2.25,18.79-6.75,26.59c-4.5,7.81-10.68,13.93-18.56,18.36-7.87,4.43-17.04,6.65-27.48,6.65ZM895.36,225.75c5.29,0,9.89-1.36,13.79-4.07,3.9-2.71,6.98-6.35,9.23-10.92,2.25-4.56,3.37-9.56,3.37-14.98,0-6.22-1.22-11.51-3.67-15.88-2.45-4.37-5.66-7.67-9.62-9.92-3.97-2.25-8.34-3.37-13.1-3.37-5.16,0-9.69,1.26-13.59,3.77-3.9,2.52-6.95,5.99-9.13,10.42-2.18,4.43-3.27,9.56-3.27,15.38s1.16,10.98,3.47,15.48c2.31,4.5,5.46,7.97,9.43,10.42,3.97,2.45,8.34,3.67,13.1,3.67Z"/>
      <rect class="cls-2" x="702.07" y="146.97" width="25.4" height="98.43"/>
    </g>
  </g>
</svg>