<?xml version="1.0" standalone="no"?>
<!DOCTYPE svg PUBLIC "-//W3C//DTD SVG 20010904//EN"
 "http://www.w3.org/TR/2001/REC-SVG-20010904/DTD/svg10.dtd">
<svg version="1.0" xmlns="http://www.w3.org/2000/svg"
 width="4209.000000pt" height="1204.000000pt" viewBox="0 0 4209.000000 1204.000000"
 preserveAspectRatio="xMidYMid meet">

<g transform="translate(0.000000,1204.000000) scale(0.100000,-0.100000)"
fill="#000000" stroke="none">
<path d="M5150 11464 c-123 -33 -105 -17 -955 -865 -722 -721 -817 -812 -874
-840 -35 -18 -94 -61 -131 -95 -37 -35 -76 -64 -86 -64 -11 0 -43 16 -73 36
-109 73 -215 107 -341 107 -154 0 -278 -50 -405 -162 -75 -67 -82 -71 -128
-71 -41 0 -62 8 -130 50 -120 74 -181 90 -341 90 -117 0 -137 -3 -176 -22
-106 -55 -107 -200 -2 -261 24 -14 59 -21 125 -25 51 -2 104 -11 118 -18 14
-7 55 -40 92 -73 126 -114 208 -146 377 -145 129 0 176 13 286 80 132 81 134
81 235 -11 78 -71 178 -126 279 -151 49 -13 91 -15 175 -10 60 3 124 8 140 11
29 6 74 -38 1045 -1011 558 -559 1001 -1007 983 -995 -18 12 -58 34 -90 49
-51 24 -70 27 -163 27 -118 0 -169 -14 -255 -71 -27 -18 -908 -892 -1956
-1941 -1778 -1779 -1909 -1912 -1938 -1974 -63 -130 -65 -254 -5 -390 26 -60
78 -115 888 -927 474 -475 882 -877 909 -893 130 -85 303 -91 452 -17 44 22
3854 3821 3905 3894 95 135 95 362 0 492 l-29 41 44 -30 c136 -92 340 -95 475
-9 67 44 1774 1756 1798 1805 76 154 66 322 -28 461 -24 37 -761 780 -1942
1960 -1465 1463 -1915 1906 -1954 1927 -105 55 -218 69 -324 41z m205 -279
c22 -13 889 -873 1927 -1912 1643 -1644 1888 -1893 1897 -1928 15 -56 13 -84
-8 -130 -24 -50 -1692 -1719 -1734 -1735 -36 -13 -98 -13 -134 0 -38 15 -3831
3805 -3849 3847 -20 45 -17 107 5 151 11 21 390 407 863 879 636 635 850 843
873 848 17 4 35 8 40 10 21 8 82 -7 120 -30z m-2437 -1787 c68 -47 110 -60
188 -60 66 1 73 -1 78 -21 13 -48 10 -50 -57 -45 -83 7 -155 43 -237 120 -64
60 -55 62 28 6z m2260 -2573 c43 -18 1663 -1630 1712 -1704 34 -51 40 -118 16
-174 -18 -42 -3811 -3832 -3849 -3847 -42 -15 -97 -12 -142 9 -58 27 -1721
1694 -1732 1736 -13 51 -7 108 15 150 29 56 3785 3809 3832 3829 46 20 101 20
148 1z"/>
<path d="M5165 10567 c-84 -33 -134 -83 -161 -159 -32 -91 -8 -192 62 -262
124 -124 331 -89 410 70 26 52 26 164 1 215 -24 48 -79 103 -125 125 -45 21
-148 28 -187 11z"/>
<path d="M6217 8432 l-817 -817 93 -93 92 -92 820 820 820 820 -90 90 c-49 49
-92 90 -95 90 -3 0 -373 -368 -823 -818z"/>
<path d="M5162 8741 c-130 -45 -201 -188 -158 -317 77 -232 405 -232 482 0 44
132 -34 281 -167 320 -67 20 -92 20 -157 -3z"/>
<path d="M7296 7510 c-207 -81 -221 -366 -24 -464 136 -68 304 0 353 143 44
131 -23 273 -152 321 -66 25 -114 25 -177 0z"/>
<path d="M5034 5274 c-99 -35 -166 -132 -167 -239 0 -70 17 -117 64 -170 99
-112 279 -112 378 0 45 52 63 98 64 165 1 178 -173 303 -339 244z"/>
<path d="M3225 4780 l-90 -90 815 -815 c448 -448 820 -815 825 -815 6 0 50 39
98 88 l87 87 -818 818 c-449 449 -819 817 -822 817 -3 0 -46 -41 -95 -90z"/>
<path d="M2830 3077 c-49 -16 -133 -102 -148 -153 -39 -132 11 -255 126 -311
172 -85 364 32 366 222 1 102 -58 195 -149 236 -45 21 -139 24 -195 6z"/>
<path d="M11550 9390 c-229 -29 -404 -174 -494 -410 l-21 -55 -3 -2300 c-3
-2553 -7 -2372 63 -2513 68 -135 189 -238 340 -290 l80 -27 1485 0 c1669 0
1587 -3 1897 75 813 207 1419 799 1643 1607 80 290 93 462 87 1204 -4 626 -8
676 -56 899 -171 782 -685 1380 -1428 1661 -219 83 -457 132 -724 148 -185 12
-2779 13 -2869 1z m3002 -225 c449 -52 853 -231 1183 -523 306 -271 545 -694
630 -1114 47 -234 50 -286 50 -938 0 -677 -5 -752 -65 -998 -77 -314 -229
-615 -433 -859 -276 -328 -696 -578 -1132 -673 -253 -55 -201 -53 -1713 -57
-869 -3 -1434 -1 -1484 5 -151 19 -249 88 -312 221 l-31 66 -3 2269 c-2 2475
-5 2332 52 2431 48 82 144 155 230 176 17 4 677 7 1466 8 1210 1 1455 -1 1562
-14z"/>
<path d="M12010 6595 l0 -1826 1238 4 c1215 3 1239 4 1333 24 280 62 500 176
679 352 145 143 246 308 315 515 69 205 70 218 70 936 0 637 0 646 -23 750
-77 348 -237 610 -487 797 -191 143 -442 236 -704 263 -65 6 -535 10 -1262 10
l-1159 0 0 -1825z m2500 1590 c415 -68 733 -334 864 -725 60 -180 61 -199 61
-870 0 -591 -1 -619 -22 -716 -98 -459 -398 -762 -858 -865 -100 -23 -100 -23
-1217 -26 l-1118 -4 0 1611 0 1610 1098 0 c939 0 1111 -2 1192 -15z"/>
<path d="M29369 9367 c-24 -13 -57 -43 -74 -66 l-30 -43 -3 -431 c-2 -294 0
-444 8 -470 14 -49 65 -106 115 -128 37 -17 76 -19 468 -19 406 0 430 1 466
20 51 25 109 94 118 139 5 20 8 223 8 451 0 406 0 416 -22 455 -27 50 -58 80
-105 100 -32 13 -102 15 -471 15 l-434 0 -44 -23z m869 -564 l-3 -378 -382 -3
-383 -2 0 380 0 380 385 0 385 0 -2 -377z"/>
<path d="M29791 8995 c-51 -16 -107 -66 -127 -112 -18 -41 -18 -124 0 -166 30
-73 104 -121 186 -121 100 0 175 59 201 157 41 150 -110 291 -260 242z"/>
<path d="M18540 8064 c-14 -2 -59 -9 -100 -15 -645 -92 -1120 -539 -1236
-1159 -16 -85 -18 -181 -22 -875 -4 -812 1 -945 38 -1115 111 -510 511 -918
1030 -1050 217 -55 162 -53 1215 -57 681 -3 1014 -1 1090 7 208 21 364 65 552
155 419 200 675 540 770 1022 15 78 17 180 21 868 4 849 1 912 -49 1118 -101
411 -326 718 -675 921 -134 78 -264 124 -454 162 -76 16 -191 18 -1120 20
-569 1 -1046 0 -1060 -2z m2120 -223 c122 -21 225 -52 319 -97 375 -177 601
-485 688 -937 16 -83 18 -166 18 -892 0 -723 -2 -810 -18 -900 -48 -268 -187
-530 -364 -682 -166 -143 -385 -251 -603 -297 -156 -33 -320 -37 -1260 -33
l-925 4 -122 26 c-212 47 -378 120 -526 231 -177 133 -336 350 -405 551 -57
169 -56 139 -60 1065 -2 598 0 879 8 935 27 191 81 335 187 494 207 310 544
501 953 541 132 12 2032 5 2110 -9z"/>
<path d="M18535 7080 c-201 -42 -332 -174 -365 -368 -7 -47 -10 -299 -8 -822
l3 -755 24 -63 c59 -161 179 -259 355 -293 28 -5 455 -9 1006 -9 924 0 959 1
1035 20 43 11 97 31 119 44 58 34 130 112 160 172 55 111 56 116 56 925 0 713
-1 749 -20 824 -11 43 -31 97 -44 119 -34 58 -112 130 -172 160 -113 57 -95
56 -1144 55 -531 -1 -983 -5 -1005 -9z m2035 -226 c59 -28 88 -57 114 -113 21
-46 21 -52 21 -811 0 -759 0 -765 -21 -810 -28 -59 -57 -88 -113 -114 -46 -21
-48 -21 -1026 -21 l-980 0 -56 26 c-32 15 -67 41 -81 60 -54 72 -53 56 -53
869 l0 755 25 49 c14 28 41 62 60 78 74 58 55 57 1105 55 956 -2 960 -2 1005
-23z"/>
<path d="M22995 8055 c-231 -50 -403 -212 -459 -431 -14 -55 -16 -263 -16
-1948 l0 -1886 593 2 592 3 3 1543 2 1543 633 -4 c704 -3 681 -1 752 -72 75
-74 69 41 73 -1568 l2 -1447 593 2 592 3 0 1485 c0 1043 -3 1502 -11 1543
l-11 58 426 -3 426 -3 58 -28 c71 -35 102 -84 117 -182 6 -44 10 -587 10
-1473 l0 -1402 593 2 592 3 3 1395 c3 1406 -1 1575 -33 1736 -105 516 -451
896 -967 1062 -239 77 -216 76 -1110 80 l-798 3 0 -106 0 -105 -87 44 c-150
74 -327 127 -513 152 -149 19 -1964 19 -2055 -1z m1979 -206 c204 -18 416 -84
580 -180 39 -23 122 -80 184 -126 61 -45 114 -83 117 -83 3 0 5 90 5 200 l0
200 598 0 c651 0 784 -7 941 -46 447 -111 755 -391 886 -805 56 -177 55 -158
55 -1641 l0 -1368 -380 0 -380 0 0 1325 c0 1174 -2 1335 -16 1403 -39 189
-139 296 -319 342 -74 19 -111 20 -629 20 l-552 0 36 -132 35 -133 3 -1412 3
-1413 -381 0 -380 0 -2 1363 -3 1362 -23 59 c-32 85 -64 136 -115 183 -57 53
-110 79 -204 104 -72 18 -117 19 -810 19 l-733 0 0 -1545 0 -1545 -380 0 -380
0 2 1788 3 1787 32 66 c55 112 164 191 287 209 81 12 1783 11 1920 -1z"/>
<path d="M29260 5930 l0 -2140 593 2 592 3 0 2135 0 2135 -592 3 -593 2 0
-2140z m970 0 l0 -1930 -380 0 -380 0 0 1930 0 1930 380 0 380 0 0 -1930z"/>
<path d="M31641 8054 c-86 -18 -193 -70 -263 -127 -69 -57 -150 -175 -180
-265 l-23 -67 -3 -1902 -2 -1903 595 0 595 0 0 1545 0 1545 824 0 c536 0 852
-4 902 -11 292 -40 513 -237 592 -524 14 -54 16 -190 19 -1308 l4 -1247 592 2
592 3 3 1175 c3 1177 -1 1390 -32 1565 -73 415 -266 771 -559 1033 -302 270
-723 449 -1156 492 -64 6 -546 10 -1270 9 -957 0 -1178 -3 -1230 -15z m2614
-222 c349 -62 653 -205 897 -419 277 -244 451 -583 503 -980 13 -96 15 -302
15 -1274 l0 -1159 -380 0 -379 0 -3 1158 -3 1157 -24 85 c-101 367 -366 610
-740 675 -70 13 -244 15 -1037 15 l-954 0 0 -1545 0 -1545 -385 0 -385 0 2
1783 3 1782 32 67 c55 116 165 200 285 218 29 4 589 7 1243 6 1170 -2 1192 -2
1310 -24z"/>
<path d="M37766 8059 c-242 -28 -491 -114 -681 -237 -261 -168 -473 -443 -564
-730 -68 -216 -66 -183 -66 -1162 0 -808 2 -893 18 -975 25 -127 72 -271 119
-362 200 -392 532 -651 967 -754 194 -47 240 -49 1241 -49 582 0 979 4 1035
10 437 51 813 254 1052 570 110 146 201 358 249 580 18 79 19 146 19 965 0
867 0 881 -22 975 -76 334 -197 566 -402 770 -241 239 -511 363 -870 399 -121
13 -1988 13 -2095 0z m2184 -223 c382 -69 684 -295 857 -641 49 -97 77 -177
111 -315 l26 -105 3 -810 c4 -904 2 -938 -62 -1132 -60 -181 -139 -316 -254
-437 -174 -182 -440 -320 -721 -372 -86 -16 -186 -18 -1005 -22 -592 -2 -959
0 -1051 7 -240 18 -457 84 -623 189 -184 116 -299 233 -409 418 -64 107 -104
210 -133 340 -22 97 -23 114 -27 899 -4 851 0 940 42 1109 46 180 165 385 306
526 93 93 249 199 368 250 111 48 309 98 432 109 52 5 534 8 1070 7 872 -2
985 -4 1070 -20z"/>
<path d="M37761 7070 c-169 -45 -270 -147 -319 -323 -15 -56 -17 -133 -17
-817 0 -701 1 -760 18 -819 26 -91 52 -137 113 -201 62 -65 136 -105 232 -126
100 -21 1945 -20 2045 1 135 28 247 114 300 228 52 112 52 107 52 917 0 809 0
805 -51 916 -48 102 -125 169 -250 216 l-59 23 -995 2 c-959 2 -998 1 -1069
-17z m2084 -225 c64 -32 98 -72 115 -136 7 -25 10 -304 8 -801 l-3 -763 -22
-42 c-30 -56 -76 -89 -150 -108 -53 -14 -177 -15 -1014 -13 -894 3 -957 4
-994 21 -51 23 -91 61 -118 112 -22 40 -22 40 -22 815 l0 776 26 49 c29 57 89
100 159 114 25 5 475 8 1000 8 l955 -2 60 -30z"/>
</g>
</svg>
